<mxfile>
    <diagram id="8_n95EOln2UsonjGVW7M" name="Page-1">
        <mxGraphModel dx="1229" dy="798" grid="1" gridSize="10" guides="1" tooltips="1" connect="1" arrows="1" fold="1" page="1" pageScale="1" pageWidth="827" pageHeight="1169" math="0" shadow="0">
            <root>
                <mxCell id="0"/>
                <mxCell id="1" parent="0"/>
                <mxCell id="8DcISqcebchj2DU5c0EA-9" value="&lt;div align=&quot;left&quot;&gt;&lt;br&gt;&lt;/div&gt;" style="whiteSpace=wrap;html=1;aspect=fixed;fontColor=#828282;gradientColor=none;fillColor=none;" parent="1" vertex="1">
                    <mxGeometry x="87" width="783" height="783" as="geometry"/>
                </mxCell>
                <mxCell id="8DcISqcebchj2DU5c0EA-15" value="" style="whiteSpace=wrap;html=1;aspect=fixed;fontColor=#828282;fillColor=none;gradientColor=none;dashed=1;imageAspect=0;resizeWidth=1;resizeHeight=1;" parent="1" vertex="1">
                    <mxGeometry x="120" y="190" width="540" height="540" as="geometry"/>
                </mxCell>
                <mxCell id="8DcISqcebchj2DU5c0EA-7" style="edgeStyle=orthogonalEdgeStyle;rounded=0;orthogonalLoop=1;jettySize=auto;html=1;fontColor=#828282;dashed=1;strokeColor=#828282;exitX=0.5;exitY=1;exitDx=0;exitDy=0;entryX=0.5;entryY=0;entryDx=0;entryDy=0;startArrow=classic;startFill=1;endArrow=classic;endFill=1;" parent="1" source="4" target="8DcISqcebchj2DU5c0EA-24" edge="1">
                    <mxGeometry relative="1" as="geometry">
                        <mxPoint x="780" y="510" as="sourcePoint"/>
                        <Array as="points"/>
                        <mxPoint x="450" y="310" as="targetPoint"/>
                    </mxGeometry>
                </mxCell>
                <mxCell id="8DcISqcebchj2DU5c0EA-8" value="&lt;div&gt;&lt;b&gt;Handles HTTP requests and responses for Flask&lt;/b&gt;&lt;/div&gt;" style="edgeLabel;html=1;align=center;verticalAlign=middle;resizable=0;points=[];fontColor=#828282;" parent="8DcISqcebchj2DU5c0EA-7" vertex="1" connectable="0">
                    <mxGeometry x="-0.1692" y="-2" relative="1" as="geometry">
                        <mxPoint x="12" y="5.15" as="offset"/>
                    </mxGeometry>
                </mxCell>
                <mxCell id="8DcISqcebchj2DU5c0EA-4" value="&lt;div style=&quot;font-size: 20px&quot;&gt;&lt;font size=&quot;1&quot;&gt;&lt;b&gt;&lt;font style=&quot;font-size: 16px&quot; color=&quot;#FFFFFF&quot;&gt;Trello&lt;/font&gt;&lt;/b&gt;&lt;/font&gt;&lt;/div&gt;&lt;div style=&quot;font-size: 11px&quot;&gt;&lt;font style=&quot;font-size: 11px&quot; color=&quot;#FFFFFF&quot;&gt;Web application for storing cards&lt;br&gt;&lt;/font&gt;&lt;/div&gt;" style="rounded=0;whiteSpace=wrap;html=1;strokeColor=none;fillColor=#C9C9C9;" parent="1" vertex="1">
                    <mxGeometry x="240" y="10" width="200" height="110" as="geometry"/>
                </mxCell>
                <mxCell id="8DcISqcebchj2DU5c0EA-13" value="&lt;b&gt;&lt;font color=&quot;#ffffff&quot;&gt;Container Diagram for Todo App&lt;/font&gt;&lt;/b&gt;" style="text;html=1;strokeColor=none;fillColor=none;align=center;verticalAlign=middle;whiteSpace=wrap;rounded=0;fontColor=#828282;" parent="1" vertex="1">
                    <mxGeometry x="585" y="720" width="250" height="20" as="geometry"/>
                </mxCell>
                <mxCell id="8DcISqcebchj2DU5c0EA-16" style="edgeStyle=orthogonalEdgeStyle;rounded=0;orthogonalLoop=1;jettySize=auto;html=1;exitX=0.5;exitY=1;exitDx=0;exitDy=0;dashed=1;fontColor=#828282;strokeColor=#828282;" parent="1" source="8DcISqcebchj2DU5c0EA-15" target="8DcISqcebchj2DU5c0EA-15" edge="1">
                    <mxGeometry relative="1" as="geometry"/>
                </mxCell>
                <mxCell id="8DcISqcebchj2DU5c0EA-18" style="edgeStyle=orthogonalEdgeStyle;rounded=0;orthogonalLoop=1;jettySize=auto;html=1;exitX=0.5;exitY=1;exitDx=0;exitDy=0;dashed=1;fontColor=#828282;strokeColor=#828282;" parent="1" source="8DcISqcebchj2DU5c0EA-15" target="8DcISqcebchj2DU5c0EA-15" edge="1">
                    <mxGeometry relative="1" as="geometry"/>
                </mxCell>
                <mxCell id="8DcISqcebchj2DU5c0EA-20" value="&lt;div style=&quot;font-size: 16px&quot;&gt;Multi-page App&lt;br&gt;&lt;/div&gt;&lt;div style=&quot;font-size: 8px&quot;&gt;&lt;font style=&quot;font-size: 8px&quot;&gt;[Container: Jinja Templates and HTML]&lt;/font&gt;&lt;/div&gt;&lt;div&gt;&lt;br&gt;&lt;/div&gt;&lt;div style=&quot;font-size: 11px&quot;&gt;Provides the task UI for viewing and editing tasks&lt;br&gt;&lt;/div&gt;" style="rounded=0;whiteSpace=wrap;html=1;fillColor=#1ba1e2;fontColor=#ffffff;strokeColor=none;" parent="1" vertex="1">
                    <mxGeometry x="240" y="620" width="200" height="90" as="geometry"/>
                </mxCell>
                <mxCell id="8DcISqcebchj2DU5c0EA-21" value="&lt;div&gt;Views and edits tasks&lt;/div&gt;&lt;div&gt;using&lt;br&gt;&lt;/div&gt;" style="endArrow=classic;html=1;exitX=-0.016;exitY=0.415;exitDx=0;exitDy=0;fontStyle=1;fontColor=#828282;strokeColor=#828282;dashed=1;entryX=1;entryY=0.5;entryDx=0;entryDy=0;exitPerimeter=0;" parent="1" source="8DcISqcebchj2DU5c0EA-2" target="8DcISqcebchj2DU5c0EA-20" edge="1">
                    <mxGeometry x="0.1712" y="15" width="50" height="50" relative="1" as="geometry">
                        <mxPoint x="250" y="200" as="sourcePoint"/>
                        <mxPoint x="450" y="605" as="targetPoint"/>
                        <mxPoint as="offset"/>
                        <Array as="points">
                            <mxPoint x="600" y="665"/>
                        </Array>
                    </mxGeometry>
                </mxCell>
                <mxCell id="8DcISqcebchj2DU5c0EA-23" value="" style="group" parent="1" vertex="1" connectable="0">
                    <mxGeometry x="660" y="520" width="200" height="190" as="geometry"/>
                </mxCell>
                <mxCell id="8DcISqcebchj2DU5c0EA-2" value="&lt;div style=&quot;font-size: 16px&quot;&gt;&lt;b&gt;User&lt;br&gt;&lt;/b&gt;&lt;/div&gt;&lt;div style=&quot;font-size: 16px&quot;&gt;&lt;font style=&quot;font-size: 8px&quot;&gt;[Person]&lt;/font&gt;&lt;b&gt;&lt;br&gt;&lt;/b&gt;&lt;/div&gt;&lt;div&gt;&lt;font style=&quot;font-size: 11px&quot;&gt;Any user that&amp;nbsp; wants to use the ToDo App&lt;/font&gt;&lt;br&gt;&lt;b&gt;&lt;/b&gt;&lt;/div&gt;" style="rounded=1;whiteSpace=wrap;html=1;fillColor=#0050ef;fontColor=#ffffff;strokeColor=none;" parent="8DcISqcebchj2DU5c0EA-23" vertex="1">
                    <mxGeometry y="110" width="200" height="80" as="geometry"/>
                </mxCell>
                <mxCell id="8DcISqcebchj2DU5c0EA-3" value="" style="ellipse;whiteSpace=wrap;html=1;aspect=fixed;fillColor=#0050ef;fontColor=#ffffff;strokeColor=none;" parent="8DcISqcebchj2DU5c0EA-23" vertex="1">
                    <mxGeometry x="40" width="120" height="120" as="geometry"/>
                </mxCell>
                <mxCell id="8DcISqcebchj2DU5c0EA-24" value="&lt;div style=&quot;font-size: 16px&quot;&gt;Web Application&lt;br&gt;&lt;/div&gt;&lt;div style=&quot;font-size: 8px&quot;&gt;&lt;font style=&quot;font-size: 8px&quot;&gt;[Container: Python and Gunicorn App]&lt;/font&gt;&lt;/div&gt;&lt;div&gt;&lt;br&gt;&lt;/div&gt;&lt;div style=&quot;font-size: 11px&quot;&gt;&lt;font style=&quot;font-size: 11px&quot;&gt;Delivers the static content &lt;br&gt;&lt;/font&gt;&lt;/div&gt;&lt;font style=&quot;font-size: 11px&quot;&gt;for Production&lt;/font&gt;" style="rounded=0;whiteSpace=wrap;html=1;fillColor=#1ba1e2;fontColor=#ffffff;strokeColor=none;" parent="1" vertex="1">
                    <mxGeometry x="240" y="465" width="200" height="85" as="geometry"/>
                </mxCell>
                <mxCell id="8DcISqcebchj2DU5c0EA-32" value="&lt;div&gt;D&lt;b&gt;elivers to the User's&amp;nbsp;&lt;/b&gt;&lt;b&gt;browser&lt;/b&gt;&lt;/div&gt;" style="endArrow=classic;html=1;dashed=1;fontColor=#828282;strokeColor=#828282;entryX=0.5;entryY=1;entryDx=0;entryDy=0;exitX=0.5;exitY=0;exitDx=0;exitDy=0;startArrow=classic;startFill=1;endFill=0;" parent="1" source="8DcISqcebchj2DU5c0EA-20" target="8DcISqcebchj2DU5c0EA-24" edge="1">
                    <mxGeometry width="50" height="50" relative="1" as="geometry">
                        <mxPoint x="160" y="440" as="sourcePoint"/>
                        <mxPoint x="210" y="390" as="targetPoint"/>
                        <Array as="points"/>
                    </mxGeometry>
                </mxCell>
                <mxCell id="8DcISqcebchj2DU5c0EA-34" value="&lt;div&gt;&lt;font color=&quot;#ffffff&quot;&gt;ToDo App&lt;/font&gt;&lt;/div&gt;&lt;div&gt;&lt;font color=&quot;#ffffff&quot;&gt;[Software System]&lt;/font&gt;&lt;br&gt;&lt;/div&gt;" style="text;html=1;strokeColor=none;fillColor=none;align=center;verticalAlign=middle;whiteSpace=wrap;rounded=0;dashed=1;fontColor=#828282;" parent="1" vertex="1">
                    <mxGeometry x="140" y="700" width="150" height="20" as="geometry"/>
                </mxCell>
                <mxCell id="3" value="&lt;div&gt;&lt;span style=&quot;font-size: 16px&quot;&gt;ToDo App&lt;/span&gt;&lt;/div&gt;&lt;div&gt;&lt;span style=&quot;font-size: 8px&quot;&gt;[Container: Python]&lt;/span&gt;&lt;br&gt;&lt;/div&gt;&lt;div&gt;&lt;br&gt;&lt;/div&gt;&lt;div style=&quot;font-size: 11px&quot;&gt;&lt;/div&gt;&lt;font style=&quot;font-size: 11px&quot;&gt;Contains the logic &lt;br&gt;anf code implementation behind&lt;br&gt;the ToDo App&lt;br&gt;&lt;/font&gt;" style="rounded=0;whiteSpace=wrap;html=1;fillColor=#1ba1e2;fontColor=#ffffff;strokeColor=none;" vertex="1" parent="1">
                    <mxGeometry x="240" y="200" width="200" height="85" as="geometry"/>
                </mxCell>
                <mxCell id="5" style="edgeStyle=orthogonalEdgeStyle;rounded=0;orthogonalLoop=1;jettySize=auto;html=1;fontColor=#828282;dashed=1;strokeColor=#828282;exitX=0.5;exitY=1;exitDx=0;exitDy=0;entryX=0.5;entryY=0;entryDx=0;entryDy=0;startArrow=classic;startFill=1;endArrow=none;endFill=0;" edge="1" parent="1" source="8DcISqcebchj2DU5c0EA-4" target="3">
                    <mxGeometry relative="1" as="geometry">
                        <mxPoint x="336" y="150" as="sourcePoint"/>
                        <Array as="points"/>
                        <mxPoint x="350" y="440" as="targetPoint"/>
                    </mxGeometry>
                </mxCell>
                <mxCell id="6" value="&lt;div&gt;&lt;b&gt;Sends REST requests&lt;/b&gt;&lt;/div&gt;&lt;div&gt;&lt;b&gt; to query, create or edit &lt;br&gt;&lt;/b&gt;&lt;/div&gt;&lt;div&gt;&lt;b&gt;cards on a configured&lt;/b&gt;&lt;/div&gt;&lt;div&gt;&lt;b&gt;board&lt;br&gt;&lt;/b&gt;&lt;/div&gt;" style="edgeLabel;html=1;align=center;verticalAlign=middle;resizable=0;points=[];fontColor=#828282;" vertex="1" connectable="0" parent="5">
                    <mxGeometry x="-0.1692" y="-2" relative="1" as="geometry">
                        <mxPoint x="2" y="7.0600000000000005" as="offset"/>
                    </mxGeometry>
                </mxCell>
                <mxCell id="4" value="&lt;div&gt;&lt;span style=&quot;font-size: 16px&quot;&gt;Flask Framework&lt;/span&gt;&lt;/div&gt;&lt;div&gt;&lt;span style=&quot;font-size: 8px&quot;&gt;[Container: Flask Microframework]&lt;/span&gt;&lt;br&gt;&lt;/div&gt;&lt;div&gt;&lt;br&gt;&lt;/div&gt;&lt;div style=&quot;font-size: 11px&quot;&gt;Wraps the web application code&lt;/div&gt;" style="rounded=0;whiteSpace=wrap;html=1;fillColor=#1ba1e2;fontColor=#ffffff;strokeColor=none;" vertex="1" parent="1">
                    <mxGeometry x="240" y="327.5" width="200" height="85" as="geometry"/>
                </mxCell>
                <mxCell id="9" style="edgeStyle=orthogonalEdgeStyle;rounded=0;orthogonalLoop=1;jettySize=auto;html=1;fontColor=#828282;dashed=1;strokeColor=#828282;exitX=0.5;exitY=1;exitDx=0;exitDy=0;startArrow=classic;startFill=1;endArrow=classic;endFill=1;" edge="1" parent="1">
                    <mxGeometry relative="1" as="geometry">
                        <mxPoint x="339.40999999999974" y="285" as="sourcePoint"/>
                        <Array as="points">
                            <mxPoint x="339" y="290"/>
                            <mxPoint x="339" y="290"/>
                        </Array>
                        <mxPoint x="339" y="330" as="targetPoint"/>
                    </mxGeometry>
                </mxCell>
                <mxCell id="10" value="&lt;div&gt;&lt;b&gt;Routes requests to the&amp;nbsp;&lt;/b&gt;&lt;b&gt;right underlying code&lt;/b&gt;&lt;/div&gt;" style="edgeLabel;html=1;align=center;verticalAlign=middle;resizable=0;points=[];fontColor=#828282;" vertex="1" connectable="0" parent="9">
                    <mxGeometry x="-0.1692" y="-2" relative="1" as="geometry">
                        <mxPoint x="12" y="5.15" as="offset"/>
                    </mxGeometry>
                </mxCell>
                <mxCell id="11" value="Text" style="text;html=1;resizable=0;autosize=1;align=center;verticalAlign=middle;points=[];fillColor=none;strokeColor=none;rounded=0;" vertex="1" parent="1">
                    <mxGeometry x="390" y="380" width="40" height="20" as="geometry"/>
                </mxCell>
                <mxCell id="13" value="&lt;div&gt;&lt;/div&gt;&lt;font&gt;&lt;span style=&quot;font-size: 16px&quot;&gt;Internal Component&lt;/span&gt;&lt;br&gt;&lt;/font&gt;" style="rounded=0;whiteSpace=wrap;html=1;fillColor=#1ba1e2;fontColor=#ffffff;strokeColor=none;" vertex="1" parent="1">
                    <mxGeometry x="900" y="115" width="120" height="85" as="geometry"/>
                </mxCell>
                <mxCell id="14" value="&lt;div style=&quot;font-size: 20px&quot;&gt;&lt;font size=&quot;1&quot;&gt;&lt;b&gt;&lt;font style=&quot;font-size: 16px&quot; color=&quot;#FFFFFF&quot;&gt;External Component&lt;/font&gt;&lt;/b&gt;&lt;/font&gt;&lt;/div&gt;&lt;div style=&quot;font-size: 11px&quot;&gt;&lt;font style=&quot;font-size: 11px&quot; color=&quot;#FFFFFF&quot;&gt;&lt;br&gt;&lt;/font&gt;&lt;/div&gt;" style="rounded=0;whiteSpace=wrap;html=1;strokeColor=none;fillColor=#C9C9C9;" vertex="1" parent="1">
                    <mxGeometry x="900" y="20" width="120" height="70" as="geometry"/>
                </mxCell>
                <mxCell id="15" value="" style="group" vertex="1" connectable="0" parent="1">
                    <mxGeometry x="900" y="230" width="120" height="110" as="geometry"/>
                </mxCell>
                <mxCell id="16" value="&lt;div style=&quot;font-size: 16px&quot;&gt;&lt;b&gt;Person&lt;/b&gt;&lt;/div&gt;&lt;div&gt;&lt;b&gt;&lt;/b&gt;&lt;/div&gt;" style="rounded=1;whiteSpace=wrap;html=1;fillColor=#0050ef;fontColor=#ffffff;strokeColor=none;" vertex="1" parent="15">
                    <mxGeometry y="63.684210526315795" width="120" height="46.31578947368421" as="geometry"/>
                </mxCell>
                <mxCell id="17" value="" style="ellipse;whiteSpace=wrap;html=1;aspect=fixed;fillColor=#0050ef;fontColor=#ffffff;strokeColor=none;" vertex="1" parent="15">
                    <mxGeometry x="24" width="69.47368421052632" height="69.47368421052632" as="geometry"/>
                </mxCell>
                <mxCell id="18" value="&lt;b&gt;&lt;font style=&quot;font-size: 18px&quot;&gt;KEY&lt;/font&gt;&lt;/b&gt;" style="text;html=1;resizable=0;autosize=1;align=center;verticalAlign=middle;points=[];fillColor=none;strokeColor=none;rounded=0;" vertex="1" parent="1">
                    <mxGeometry x="935" y="380" width="50" height="20" as="geometry"/>
                </mxCell>
            </root>
        </mxGraphModel>
    </diagram>
</mxfile>